<?xml version="1.0" standalone="no"?>
<!DOCTYPE svg PUBLIC "-//W3C//DTD SVG 20010904//EN"
 "http://www.w3.org/TR/2001/REC-SVG-20010904/DTD/svg10.dtd">
<svg version="1.0" xmlns="http://www.w3.org/2000/svg"
 width="220.000000pt" height="220.000000pt" viewBox="0 0 220.000000 220.000000"
 preserveAspectRatio="xMidYMid meet">
<metadata>
Created by potrace 1.14, written by Peter Selinger 2001-2017
</metadata>
<g transform="translate(0.000000,220.000000) scale(0.100000,-0.100000)"
fill="#000000" stroke="none">
<path d="M975 1920 c-280 -48 -516 -235 -625 -496 -118 -284 -63 -621 139
-849 58 -66 161 -148 236 -187 223 -117 463 -124 725 -23 12 4 16 -2 18 -24 3
-34 45 -83 66 -75 27 10 39 51 32 107 -6 54 -6 55 32 83 56 43 140 132 182
194 141 209 179 452 108 695 -71 242 -269 454 -504 536 -127 44 -286 59 -409
39z"/>
<path d="M293 1667 c-69 -105 -129 -241 -148 -333 -3 -16 -8 -40 -11 -54 -3
-14 -7 -81 -8 -150 -5 -173 24 -304 100 -461 24 -48 38 -69 45 -62 7 7 -1 34
-24 81 -36 74 -70 172 -81 232 -3 19 -8 46 -11 60 -7 29 -8 213 -2 250 27 168
77 297 167 430 28 42 36 60 26 63 -8 3 -29 -19 -53 -56z"/>
<path d="M1863 1723 c-8 -3 1 -25 27 -63 58 -85 104 -182 136 -285 24 -78 28
-107 28 -215 0 -196 -24 -315 -101 -489 -14 -34 -20 -58 -14 -64 11 -11 20 4
60 105 30 76 55 163 66 228 3 19 8 49 12 65 9 46 10 190 1 259 -16 122 -93
312 -170 417 -18 25 -39 44 -45 42z"/>
</g>
</svg>
